<svg width="1440" height="416" viewBox="0 0 1440 416" fill="none" xmlns="http://www.w3.org/2000/svg">
<g opacity="0.2">
<mask id="mask0_439_7418" style="mask-type:alpha" maskUnits="userSpaceOnUse" x="-111" y="-1" width="1610" height="417">
<g opacity="0.5">
<g style="mix-blend-mode:color-dodge">
<path fill-rule="evenodd" clip-rule="evenodd" d="M1206.86 -0.000183105H1206.73V0.165649H1206.86V-0.000183105ZM1189.66 0.0452271H1189.59V0.135742H1189.66V0.0452271ZM1223.92 -0.000183105H1224.05V0.165649H1223.92V-0.000183105ZM1241.23 -0.000183105H1241.1V0.165649H1241.23V-0.000183105ZM1258.32 0.0452271H1258.39V0.135742H1258.32V0.0452271ZM1120.93 21.762H1120.86V21.8525H1120.93V21.762ZM1137.93 21.6258H1138.21V21.9727H1137.93V21.6258ZM1155.56 21.4149H1154.95V22.184H1155.56V21.4149ZM1172 21.2493H1172.87V22.3503H1172V21.2493ZM1190.18 21.0677H1189.04V22.5154H1190.18V21.0677ZM1206.16 20.992H1207.44V22.6057H1206.16V20.992ZM1224.66 20.9471H1223.31V22.6513H1224.66V20.9471ZM1240.53 20.992H1241.8V22.6057H1240.53V20.992ZM1258.91 21.0677H1257.77V22.5154H1258.91V21.0677ZM1275.06 21.2034H1276V22.3948H1275.06V21.2034ZM1293.02 21.4149H1292.41V22.184H1293.02V21.4149ZM1309.76 21.6258H1310.03V21.9727H1309.76V21.6258ZM1327.12 21.762H1327.05V21.8525H1327.12V21.762ZM1086.49 43.4783H1086.57V43.5688H1086.49V43.4783ZM1103.9 43.2527H1103.5V43.7654H1103.9V43.2527ZM1120.38 42.8748H1121.4V44.1567H1120.38V42.8748ZM1138.84 42.5281H1137.29V44.4887H1138.84V42.5281ZM1154.27 42.2718H1156.23V44.7451H1154.27V42.2718ZM1173.57 42.0604H1171.28V44.9559H1173.57V42.0604ZM1188.33 41.8948H1190.9V45.1373H1188.33V41.8948ZM1208.14 41.8045H1205.45V45.2128H1208.14V41.8045ZM1222.6 41.7742H1225.37V45.273H1222.6V41.7742ZM1242.51 41.8045H1239.81V45.2128H1242.51V41.8045ZM1257.06 41.8948H1259.63V45.1373H1257.06V41.8948ZM1276.67 42.0604H1274.38V44.9559H1276.67V42.0604ZM1291.73 42.2718H1293.68V44.7451H1291.73V42.2718ZM1310.66 42.5281H1309.11V44.4887H1310.66V42.5281ZM1326.57 42.8748H1327.58V44.1567H1326.57V42.8748ZM1344.5 43.2225H1344.03V43.8257H1344.5V43.2225ZM1361.41 43.4783H1361.48V43.5688H1361.41V43.4783ZM1069.48 65.0584H1069.2V65.4053H1069.48V65.0584ZM1086.05 64.637H1087V65.8285H1086.05V64.637ZM1104.55 64.1693H1102.86V66.2956H1104.55V64.1693ZM1119.74 63.7776H1122.03V66.6732H1119.74V63.7776ZM1139.48 63.4461H1136.66V67.0203H1139.48V63.4461ZM1153.6 63.1443H1156.91V67.3218H1153.6V63.1443ZM1174.25 62.9324H1170.62V67.5322H1174.25V62.9324ZM1187.67 62.7669H1191.58V67.7136H1187.67V62.7669ZM1208.82 62.6761H1204.78V67.7885H1208.82V62.6761ZM1221.92 62.6317H1226.03V67.8195H1221.92V62.6317ZM1243.19 62.6761H1239.14V67.7885H1243.19V62.6761ZM1256.4 62.7669H1260.31V67.7136H1256.4V62.7669ZM1277.35 62.9324H1273.71V67.5322H1277.35V62.9324ZM1291.06 63.1443H1294.36V67.3218H1291.06V63.1443ZM1311.34 63.4002H1308.44V67.0649H1311.34V63.4002ZM1325.9 63.7479H1328.26V66.7338H1325.9V63.7479ZM1345.1 64.1693H1343.42V66.2956H1345.1V64.1693ZM1360.93 64.5916H1361.95V65.8735H1360.93V64.5916ZM1378.76 65.0584H1378.49V65.4053H1378.76V65.0584ZM1051.93 86.6556H1052.4V87.2588H1051.93V86.6556ZM1070.02 86.0975H1068.67V87.8016H1070.02V86.0975ZM1085.44 85.5848H1087.6V88.3145H1085.44V85.5848ZM1105.16 85.1165H1102.26V88.7812H1105.16V85.1165ZM1119.14 84.7405H1122.65V89.1743H1119.14V84.7405ZM1140.12 84.3484H1136.01V89.5364H1140.12V84.3484ZM1152.96 84.0462H1157.54V89.8373H1152.96V84.0462ZM1221.28 83.5335H1226.67V90.35H1221.28V83.5335ZM1209.45 83.5784H1204.13V90.3045H1209.45V83.5784ZM1187.02 83.6693H1192.21V90.2295H1187.02V83.6693ZM1169.97 83.8358H1174.89V90.0491H1169.97V83.8358ZM1243.82 83.5784H1238.5V90.3045H1243.82V83.5784ZM1255.75 83.6693H1260.94V90.2295H1255.75V83.6693ZM1277.98 83.8358H1273.06V90.0491H1277.98V83.8358ZM1290.41 84.0462H1295V89.8373H1290.41V84.0462ZM1311.94 84.3484H1307.83V89.5364H1311.94V84.3484ZM1325.29 84.6946H1328.86V89.2039H1325.29V84.6946ZM1345.73 85.0721H1342.77V88.8123H1345.73V85.0721ZM1360.32 85.5394H1362.54V88.3445H1360.32V85.5394ZM1379.3 86.0975H1377.95V87.8016H1379.3V86.0975ZM1395.57 86.6556H1396.05V87.2588H1395.57V86.6556ZM1035.25 108.327H1034.71V109.006H1035.25V108.327ZM1051.41 107.723H1052.89V109.594H1051.41V107.723ZM1070.55 107.135H1068.13V110.197H1070.55V107.135ZM1084.87 106.577H1088.18V110.754H1084.87V106.577ZM1105.73 106.11H1101.68V111.223H1105.73V106.11ZM1118.53 105.687H1123.25V111.644H1118.53V105.687ZM1140.69 105.341H1135.44V111.977H1140.69V105.341ZM1152.36 105.008H1158.16V112.338H1152.36V105.008ZM1175.5 104.783H1169.36V112.535H1175.5V104.783ZM1186.41 104.617H1192.81V112.7H1186.41V104.617ZM1210.1 104.496H1203.5V112.836H1210.1V104.496ZM1220.68 104.496H1227.28V112.836H1220.68V104.496ZM1244.46 104.496H1237.87V112.836H1244.46V104.496ZM1255.14 104.617H1261.54V112.7H1255.14V104.617ZM1278.59 104.783H1272.46V112.535H1278.59V104.783ZM1289.82 105.008H1295.62V112.338H1289.82V105.008ZM1312.55 105.296H1307.23V112.022H1312.55V105.296ZM1324.72 105.687H1329.43V111.644H1324.72V105.687ZM1346.3 106.065H1342.2V111.253H1346.3V106.065ZM1359.75 106.532H1363.12V110.785H1359.75V106.532ZM1379.87 107.09H1377.38V110.242H1379.87V107.09ZM1395.02 107.678H1396.57V109.639H1395.02V107.678ZM1413.29 108.282H1412.68V109.051H1413.29V108.282ZM1017.56 130.089H1018.04V130.692H1017.56V130.089ZM1035.71 129.44H1034.23V131.31H1035.71V129.44ZM1050.88 128.762H1053.44V132.004H1050.88V128.762ZM1071.1 128.174H1067.59V132.607H1071.1V128.174ZM1084.33 127.616H1088.71V133.15H1084.33V127.616ZM1106.27 127.148H1101.15V133.618H1106.27V127.148ZM1117.99 126.726H1123.79V134.055H1117.99V126.726ZM1141.26 126.334H1134.87V134.417H1141.26V126.334ZM1151.81 126.032H1158.68V134.718H1151.81V126.032ZM1176.07 125.775H1168.79V134.975H1176.07V125.775ZM1185.84 125.61H1193.38V135.141H1185.84V125.61ZM1210.67 125.489H1202.93V135.277H1210.67V125.489ZM1220.11 125.489H1227.85V135.277H1220.11V125.489ZM1245.04 125.489H1237.29V135.277H1245.04V125.489ZM1254.57 125.61H1262.11V135.141H1254.57V125.61ZM1279.16 125.775H1271.88V134.975H1279.16V125.775ZM1289.24 126.002H1296.19V134.779H1289.24V126.002ZM1313.12 126.289H1306.65V134.463H1313.12V126.289ZM1324.15 126.68H1330.01V134.085H1324.15V126.68ZM1346.85 127.103H1341.66V133.663H1346.85V127.103ZM1359.25 127.616H1363.63V133.15H1359.25V127.616ZM1380.41 128.128H1376.84V132.637H1380.41V128.128ZM1394.49 128.717H1397.11V132.035H1394.49V128.717ZM1413.76 129.395H1412.21V131.355H1413.76V129.395ZM1429.9 130.043H1430.44V130.722H1429.9V130.043ZM1000.75 151.926H1000.48V152.272H1000.75V151.926ZM1017.12 151.247H1018.47V152.951H1017.12V151.247ZM1036.19 150.569H1033.77V153.63H1036.19V150.569ZM1050.41 149.89H1053.92V154.324H1050.41V149.89ZM1071.57 149.286H1067.12V154.912H1071.57V149.286ZM1083.86 148.729H1089.18V155.456H1083.86V148.729ZM1106.77 148.217H1100.63V155.968H1106.77V148.217ZM1117.48 147.794H1124.28V156.39H1117.48V147.794ZM1141.78 147.417H1134.37V156.783H1141.78V147.417ZM1151.27 147.07H1159.22V157.114H1151.27V147.07ZM1176.61 146.814H1168.25V157.37H1176.61V146.814ZM1185.3 146.648H1193.93V157.551H1185.3V146.648ZM1211.21 146.512H1202.38V157.672H1211.21V146.512ZM1219.54 146.482H1228.43V157.717H1219.54V146.482ZM1245.57 146.512H1236.74V157.672H1245.57V146.512ZM1254 146.602H1262.68V157.581H1254V146.602ZM1279.7 146.814H1271.35V157.37H1279.7V146.814ZM1288.73 147.07H1296.68V157.114H1288.73V147.07ZM1313.63 147.372H1306.15V156.828H1313.63V147.372ZM1323.63 147.749H1330.51V156.436H1323.63V147.749ZM1347.37 148.186H1341.16V156.028H1347.37V148.186ZM1358.74 148.684H1364.13V155.501H1358.74V148.684ZM1380.87 149.242H1376.36V154.943H1380.87V149.242ZM1394.02 149.845H1397.59V154.354H1394.02V149.845ZM1414.23 150.524H1411.74V153.676H1414.23V150.524ZM1429.46 151.202H1430.88V152.997H1429.46V151.202ZM1447.51 151.881H1447.18V152.303H1447.51V151.881ZM983.4 173.779H983.472V173.87H983.4V173.779ZM1001.08 173.221H1000.14V174.412H1001.08V173.221ZM1016.71 172.451H1018.87V175.181H1016.71V172.451ZM1036.63 171.727H1033.32V175.905H1036.63V171.727ZM1049.97 171.048H1054.35V176.583H1049.97V171.048ZM1072 170.446H1066.67V177.172H1072V170.446ZM1083.39 169.857H1089.66V177.775H1083.39V169.857ZM1107.24 169.346H1100.17V178.289H1107.24V169.346ZM1117.02 168.923H1124.76V178.71H1117.02V168.923ZM1142.28 168.485H1133.85V179.132H1142.28V168.485ZM1150.77 168.153H1159.73V179.479H1150.77V168.153ZM1228.93 167.55H1219.02V180.067H1228.93V167.55ZM1201.88 167.595H1211.71V180.021H1201.88V167.595ZM1194.44 167.731H1184.8V179.917H1194.44V167.731ZM1177.12 167.897H1167.75V179.736H1177.12V167.897ZM1236.24 167.595H1246.07V180.021H1236.24V167.595ZM1263.2 167.685H1253.5V179.946H1263.2V167.685ZM1270.85 167.897H1280.21V179.736H1270.85V167.897ZM1297.19 168.153H1288.23V179.479H1297.19V168.153ZM1305.67 168.485H1314.1V179.132H1305.67V168.485ZM1330.98 168.877H1323.17V178.755H1330.98V168.877ZM1340.72 169.346H1347.8V178.289H1340.72V169.346ZM1364.61 169.813H1358.27V177.821H1364.61V169.813ZM1375.92 170.401H1381.31V177.217H1375.92V170.401ZM1398.03 171.003H1393.58V176.629H1398.03V171.003ZM1411.3 171.683H1414.66V175.936H1411.3V171.683ZM1431.27 172.406H1429.05V175.211H1431.27V172.406ZM1446.84 173.176H1447.86V174.457H1446.84V173.176ZM1464.58 173.779H1464.5V173.87H1464.58V173.779ZM983.221 195.268H983.627V195.781H983.221V195.268ZM1001.45 194.469H999.771V196.596H1001.45V194.469ZM1016.34 193.701H1019.24V197.366H1016.34V193.701ZM1037 192.976H1032.95V198.089H1037V192.976ZM1049.6 192.298H1054.72V198.768H1049.6V192.298ZM1072.4 191.65H1066.27V199.402H1072.4V191.65ZM1082.99 191.061H1090.06V200.004H1082.99V191.061ZM1107.65 190.548H1099.76V200.517H1107.65V190.548ZM1116.57 190.081H1125.2V200.984H1116.57V190.081ZM1142.72 189.659H1133.42V201.407H1142.72V189.659ZM1150.33 189.312H1160.16V201.739H1150.33V189.312ZM1177.55 189.055H1167.31V201.995H1177.55V189.055ZM1184.33 188.845H1194.91V202.221H1184.33V188.845ZM1212.2 188.724H1201.41V202.357H1212.2V188.724ZM1218.56 188.679H1229.41V202.387H1218.56V188.679ZM1246.56 188.724H1235.78V202.357H1246.56V188.724ZM1253.05 188.845H1263.64V202.221H1253.05V188.845ZM1280.68 189.01H1270.37V202.04H1280.68V189.01ZM1287.79 189.312H1297.62V201.739H1287.79V189.312ZM1314.54 189.659H1305.25V201.407H1314.54V189.659ZM1322.73 190.035H1331.41V201.014H1322.73V190.035ZM1348.22 190.504H1340.28V200.548H1348.22V190.504ZM1357.87 191.015H1365.01V200.049H1357.87V191.015ZM1381.73 191.619H1375.53V199.462H1381.73V191.619ZM1393.21 192.253H1398.4V198.813H1393.21V192.253ZM1415.03 192.931H1410.93V198.119H1415.03V192.931ZM1428.68 193.656H1431.64V197.396H1428.68V193.656ZM1448.23 194.425H1446.47V196.642H1448.23V194.425ZM1464.3 195.239H1464.78V195.842H1464.3V195.239ZM966.289 217.212H966.218V217.303H966.289V217.212ZM982.923 216.609H983.937V217.89H982.923V216.609ZM1001.75 215.795H999.461V218.69H1001.75V215.795ZM1016.05 215.04H1019.55V219.474H1016.05V215.04ZM1037.33 214.271H1032.62V220.228H1037.33V214.271ZM1049.27 213.593H1055.06V220.922H1049.27V213.593ZM1072.74 212.944H1065.93V221.54H1072.74V212.944ZM1082.65 212.356H1090.4V222.143H1082.65V212.356ZM1108.02 211.798H1099.39V222.701H1108.02V211.798ZM1229.85 209.837H1218.12V224.662H1229.85V209.837ZM1200.97 209.883H1212.63V224.617H1200.97V209.883ZM1195.3 210.049H1183.92V224.436H1195.3V210.049ZM1166.87 210.214H1177.99V224.27H1166.87V210.214ZM1160.57 210.516H1149.92V223.969H1160.57V210.516ZM1133.02 210.863H1143.12V223.637H1133.02V210.863ZM1116.2 211.33H1125.57V223.169H1116.2V211.33ZM1235.34 209.883H1246.99V224.617H1235.34V209.883ZM1264.07 210.003H1252.61V224.481H1264.07V210.003ZM1269.96 210.214H1281.08V224.27H1269.96V210.214ZM1298.03 210.516H1287.38V223.969H1298.03V210.516ZM1304.84 210.863H1314.95V223.637H1304.84V210.863ZM1331.79 211.285H1322.36V223.214H1331.79V211.285ZM1339.91 211.752H1348.6V222.731H1339.91V211.752ZM1365.35 212.31H1357.53V222.188H1365.35V212.31ZM1375.18 212.898H1382.05V221.585H1375.18V212.898ZM1398.77 213.502H1392.84V220.997H1398.77V213.502ZM1410.59 214.226H1415.38V220.273H1410.59V214.226ZM1431.99 214.95H1428.35V219.55H1431.99V214.95ZM1446.18 215.764H1448.54V218.75H1446.18V215.764ZM1465.07 216.563H1463.99V217.92H1465.07V216.563ZM1481.69 217.212H1481.76V217.303H1481.69V217.212ZM966.385 238.793H966.111V239.14H966.385V238.793ZM982.649 237.978H984.2V239.939H982.649V237.978ZM1002.03 237.179H999.199V240.753H1002.03V237.179ZM1015.74 236.364H1019.84V241.552H1015.74V236.364ZM1037.6 235.641H1032.35V242.277H1037.6V235.641ZM1048.96 234.917H1055.35V243.001H1048.96V234.917ZM1073.05 234.284H1065.64V243.649H1073.05V234.284ZM1082.31 233.635H1090.73V244.282H1082.31V233.635ZM1108.35 233.092H1099.06V244.84H1108.35V233.092ZM1115.84 232.579H1125.94V245.353H1115.84V232.579ZM1143.47 232.158H1132.68V245.791H1143.47V232.158ZM1149.59 231.81H1160.91V246.122H1149.59V231.81ZM1178.32 231.509H1166.53V246.409H1178.32V231.509ZM1183.51 231.252H1195.71V246.665H1183.51V231.252ZM1213 231.131H1200.6V246.8H1213V231.131ZM1217.75 231.087H1230.22V246.846H1217.75V231.087ZM1247.36 231.131H1234.97V246.8H1247.36V231.131ZM1252.24 231.252H1264.44V246.665H1252.24V231.252ZM1281.45 231.464H1269.59V246.454H1281.45V231.464ZM1287.01 231.765H1298.4V246.153H1287.01V231.765ZM1315.29 232.158H1304.51V245.791H1315.29V232.158ZM1322.02 232.579H1332.13V245.353H1322.02V232.579ZM1348.94 233.047H1339.57V244.885H1348.94V233.047ZM1357.2 233.605H1365.69V244.342H1357.2V233.605ZM1382.36 234.239H1374.88V243.695H1382.36V234.239ZM1392.57 234.871H1399.03V243.045H1392.57V234.871ZM1415.68 235.551H1410.28V242.367H1415.68V235.551ZM1428.08 236.32H1432.25V241.598H1428.08V236.32ZM1448.82 237.089H1445.87V240.829H1448.82V237.089ZM1463.73 237.949H1465.35V240H1463.73V237.949ZM1481.88 238.748H1481.54V239.17H1481.88V238.748ZM965.943 260.299H966.552V261.068H965.943V260.299ZM984.402 259.439H982.446V261.912H984.402V259.439ZM998.96 258.595H1002.27V262.772H998.96V258.595ZM1020.08 257.78H1015.5V263.571H1020.08V257.78ZM1032.08 257.025H1037.88V264.355H1032.08V257.025ZM1055.59 256.332H1048.72V265.019H1055.59V256.332ZM1065.36 255.654H1073.31V265.698H1065.36V255.654ZM1091 255.02H1082.04V266.346H1091V255.02ZM1098.78 254.462H1108.62V266.889H1098.78V254.462ZM1126.2 253.949H1115.56V267.401H1126.2V253.949ZM1132.41 253.527H1143.73V267.839H1132.41V253.527ZM1161.22 253.15H1149.29V268.231H1161.22V253.15ZM1166.2 252.804H1178.67V268.563H1166.2V252.804ZM1196.05 252.547H1183.18V268.819H1196.05V252.547ZM1200.27 252.426H1213.34V268.955H1200.27V252.426ZM1230.55 252.381H1217.41V268.985H1230.55V252.381ZM1234.63 252.426H1247.71V268.955H1234.63V252.426ZM1264.78 252.547H1251.91V268.819H1264.78V252.547ZM1269.26 252.759H1281.79V268.594H1269.26V252.759ZM1298.71 253.105H1286.72V268.261H1298.71V253.105ZM1304.2 253.482H1315.58V267.87H1304.2V253.482ZM1332.43 253.905H1321.71V267.447H1332.43V253.905ZM1339.3 254.417H1349.2V266.934H1339.3V254.417ZM1365.92 255.02H1356.96V266.346H1365.92V255.02ZM1374.61 255.608H1382.63V265.743H1374.61V255.608ZM1399.31 256.257H1392.3V265.11H1399.31V256.257ZM1410.06 256.98H1415.92V264.385H1410.06V256.98ZM1432.5 257.75H1427.85V263.632H1432.5V257.75ZM1445.66 258.549H1449.03V262.802H1445.66V258.549ZM1465.54 259.409H1463.53V261.957H1465.54V259.409ZM1481.38 260.253H1482.04V261.098H1481.38V260.253ZM966.683 281.849H965.812V282.95H966.683V281.849ZM982.279 280.944H984.57V283.84H982.279V280.944ZM1002.43 280.099H998.793V284.699H1002.43V280.099ZM1015.33 279.285H1020.25V285.499H1015.33V279.285ZM1038.04 278.516H1031.9V286.268H1038.04V278.516ZM1048.51 277.792H1055.79V286.992H1048.51V277.792ZM1073.51 277.114H1065.16V287.67H1073.51V277.114ZM1081.84 276.48H1091.21V288.319H1081.84V276.48ZM1108.82 275.922H1098.58V288.862H1108.82V275.922ZM1115.32 275.365H1126.44V289.42H1115.32V275.365ZM1143.96 274.942H1132.17V289.842H1143.96V274.942ZM1149.02 274.52H1161.49V290.279H1149.02V274.52ZM1178.93 274.173H1165.93V290.611H1178.93V274.173ZM1182.91 273.916H1196.32V290.867H1182.91V273.916ZM1213.63 273.751H1199.96V291.034H1213.63V273.751ZM1217.1 273.706H1230.85V291.079H1217.1V273.706ZM1248 273.751H1234.32V291.034H1248V273.751ZM1251.63 273.916H1265.05V290.867H1251.63V273.916ZM1282.03 274.173H1269.02V290.611H1282.03V274.173ZM1286.44 274.474H1298.97V290.31H1286.44V274.474ZM1315.82 274.897H1303.96V289.887H1315.82V274.897ZM1321.51 275.365H1332.63V289.42H1321.51V275.365ZM1349.41 275.877H1339.1V288.907H1349.41V275.877ZM1356.72 276.435H1366.16V288.364H1356.72V276.435ZM1382.83 277.068H1374.4V287.715H1382.83V277.068ZM1392.14 277.762H1399.49V287.052H1392.14V277.762ZM1409.89 278.486H1416.1V286.328H1409.89V278.486ZM1427.67 279.24H1432.66V285.544H1427.67V279.24ZM1449.23 280.009H1445.46V284.775H1449.23V280.009ZM1463.32 280.869H1465.75V283.93H1463.32V280.869ZM1482.22 281.758H1481.21V283.04H1482.22V281.758ZM1498.87 282.362H1498.94V282.452H1498.87V282.362ZM949.107 304.078H949.036V304.169H949.107V304.078ZM965.669 303.385H966.815V304.832H965.669V303.385ZM984.713 302.495H982.148V305.738H984.713V302.495ZM998.662 301.651H1002.58V306.598H998.662V301.651ZM1020.39 300.836H1015.2V307.397H1020.39V300.836ZM1031.77 300.067H1038.17V308.151H1031.77V300.067ZM1055.92 299.343H1048.38V308.874H1055.92V299.343ZM1065.03 298.665H1073.66V309.568H1065.03V298.665ZM1091.35 298.032H1081.71V310.217H1091.35V298.032ZM1098.41 297.428H1109V310.805H1098.41V297.428ZM1126.57 296.915H1115.19V311.302H1126.57V296.915ZM1131.97 296.403H1144.16V311.815H1131.97V296.403ZM1161.69 295.98H1148.82V312.253H1161.69V295.98ZM1165.72 295.633H1179.14V312.584H1165.72V295.633ZM1196.53 295.392H1182.71V312.856H1196.53V295.392ZM1199.75 295.211H1213.83V313.007H1199.75V295.211ZM1231.1 295.136H1216.88V313.113H1231.1V295.136ZM1234.08 295.166H1248.23V313.052H1234.08V295.166ZM1265.26 295.392H1251.44V312.856H1265.26V295.392ZM1268.82 295.633H1282.23V312.584H1268.82V295.633ZM1299.15 295.98H1286.27V312.253H1299.15V295.98ZM1303.75 296.357H1316.02V311.861H1303.75V296.357ZM1332.8 296.87H1321.34V311.348H1332.8V296.87ZM1338.93 297.383H1349.57V310.835H1338.93V297.383ZM1366.29 297.986H1356.59V310.247H1366.29V297.986ZM1374.27 298.62H1382.96V309.599H1374.27V298.62ZM1399.61 299.298H1391.99V308.92H1399.61V299.298ZM1409.75 300.021H1416.21V308.195H1409.75V300.021ZM1432.79 300.791H1427.54V307.427H1432.79V300.791ZM1445.37 301.606H1449.34V306.628H1445.37V301.606ZM1465.84 302.45H1463.22V305.767H1465.84V302.45ZM1481.11 303.355H1482.33V304.893H1481.11V303.355ZM1498.94 304.078H1498.87V304.169H1498.94V304.078ZM949 325.75H949.131V325.916H949V325.75ZM966.886 325.027H965.609V326.64H966.886V325.027ZM982.076 324.121H984.772V327.529H982.076V324.121ZM1002.63 323.277H998.59V328.389H1002.63V323.277ZM1015.13 322.462H1020.45V329.188H1015.13V322.462ZM1038.28 321.663H1031.68V330.003H1038.28V321.663ZM1048.29 320.939H1056.03V330.727H1048.29V320.939ZM1073.75 320.245H1064.92V331.405H1073.75V320.245ZM1081.6 319.612H1091.43V332.039H1081.6V319.612ZM1109.1 319.024H1098.32V332.657H1109.1V319.024ZM1115.06 318.466H1126.72V333.2H1115.06V318.466ZM1144.27 317.999H1131.87V333.668H1144.27V317.999ZM1148.72 317.576H1161.8V334.105H1148.72V317.576ZM1179.27 317.184H1165.59V334.467H1179.27V317.184ZM1182.57 316.928H1196.65V334.724H1182.57V316.928ZM1214 316.717H1199.59V334.935H1214V316.717ZM1216.7 316.626H1231.25V335.025H1216.7V316.626ZM1248.37 316.717H1233.95V334.935H1248.37V316.717ZM1251.26 316.883H1265.42V334.769H1251.26V316.883ZM1282.36 317.184H1268.69V334.467H1282.36V317.184ZM1286.14 317.531H1299.28V334.135H1286.14V317.531ZM1316.13 317.953H1303.66V333.713H1316.13V317.953ZM1321.25 318.466H1332.9V333.2H1321.25V318.466ZM1349.68 318.979H1338.83V332.687H1349.68V318.979ZM1356.48 319.567H1366.39V332.084H1356.48V319.567ZM1383.07 320.216H1374.18V331.451H1383.07V320.216ZM1391.9 320.894H1399.71V330.772H1391.9V320.894ZM1416.32 321.618H1409.65V330.048H1416.32V321.618ZM1427.44 322.387H1432.9V329.279H1427.44V322.387ZM1449.43 323.186H1445.26V328.465H1449.43V323.186ZM1463.12 324.047H1465.95V327.621H1463.12V324.047ZM1482.43 324.936H1481.01V326.73H1482.43V324.936ZM1498.83 325.75H1498.96V325.916H1498.83V325.75ZM949.131 347.467H949V347.633H949.131V347.467ZM965.574 346.698H966.922V348.402H965.574V346.698ZM984.82 345.807H982.052V349.306H984.82V348.244H986.099V346.516H984.82V345.807ZM998.554 344.949H1002.66V350.136H998.554V344.949ZM1020.49 344.134H1015.09V350.951H1020.49V344.134ZM1031.68 343.379H1038.28V351.719H1031.68V343.379ZM1056.03 342.656H1048.29V352.443H1056.03V342.656ZM1064.9 341.932H1073.79V353.167H1064.9V341.932ZM1091.47 341.283H1081.57V353.8H1091.47V341.283ZM1098.28 340.696H1109.13V354.404H1098.28V340.696ZM1126.75 340.138H1115.02V354.962H1126.75V340.138ZM1131.84 339.67H1144.31V355.43H1131.84V339.67ZM1161.82 339.248H1148.68V355.853H1161.82V339.248ZM1165.56 338.855H1179.3V356.229H1165.56V338.855ZM1196.74 338.569H1182.51V356.546H1196.74V338.569ZM1199.52 338.344H1214.07V356.742H1199.52V338.344ZM1231.36 338.221H1216.6V356.877H1231.36V338.221ZM1233.88 338.344H1248.44V356.742H1233.88V338.344ZM1265.49 338.524H1251.2V356.576H1265.49V338.524ZM1268.65 338.855H1282.4V356.229H1268.65V338.855ZM1299.32 339.202H1286.11V355.897H1299.32V339.202ZM1303.62 339.624H1316.15V355.459H1303.62V339.624ZM1332.94 340.138H1321.21V354.962H1332.94V340.138ZM1338.8 340.65H1349.72V354.449H1338.8V340.65ZM1366.42 341.239H1356.45V353.846H1366.42V341.239ZM1374.14 341.887H1383.1V353.213H1374.14V341.887ZM1399.75 342.565H1391.86V352.534H1399.75V342.565ZM1409.62 343.289H1416.36V351.81H1409.62V343.289ZM1432.93 344.058H1427.41V351.04H1432.93V344.058ZM1445.26 344.903H1449.43V350.181H1445.26V344.903ZM1465.95 345.763H1463.12V349.337H1465.95V345.763ZM1481.01 346.652H1482.43V348.447H1481.01V346.652ZM1499 347.422H1498.8V347.678H1499V347.422ZM949 369.183H949.131V369.349H949V369.183ZM966.886 368.459H965.609V370.073H966.886V368.459ZM982.076 367.555H984.772V370.963H982.076V367.555ZM1002.63 366.711H998.59V371.823H1002.63V366.711ZM1015.13 365.896H1020.45V372.622H1015.13V365.896ZM1038.28 365.096H1031.68V373.436H1038.28V365.096ZM1048.29 364.372H1056.03V374.16H1048.29V364.372ZM1073.75 363.679H1064.92V374.839H1073.75V363.679ZM1081.6 363.045H1091.43V375.472H1081.6V363.045ZM1109.1 362.457H1098.32V376.091H1109.1V362.457ZM1115.06 361.899H1126.72V376.633H1115.06V361.899ZM1144.27 361.432H1131.87V377.101H1144.27V361.432ZM1148.72 361.01H1161.8V377.539H1148.72V361.01ZM1179.27 360.618H1165.59V377.901H1179.27V360.618ZM1182.54 360.316H1196.69V378.202H1182.54V360.316ZM1214 360.15H1199.59V378.368H1214V360.15ZM1216.7 360.059H1231.25V378.458H1216.7V360.059ZM1248.4 360.105H1233.92V378.413H1248.4V360.105ZM1251.26 360.316H1265.42V378.202H1251.26V360.316ZM1282.36 360.618H1268.69V377.901H1282.36V360.618ZM1286.14 360.964H1299.28V377.568H1286.14V360.964ZM1316.13 361.386H1303.66V377.146H1316.13V361.386ZM1321.21 361.854H1332.94V376.678H1321.21V361.854ZM1349.68 362.412H1338.83V376.121H1349.68V362.412ZM1356.48 363H1366.39V375.517H1356.48V363ZM1383.07 363.649H1374.18V374.884H1383.07V363.649ZM1391.9 364.327H1399.71V374.206H1391.9V364.327ZM1416.32 365.052H1409.65V373.482H1416.32V365.052ZM1427.44 365.82H1432.9V372.712H1427.44V365.82ZM1449.43 366.619H1445.26V371.898H1449.43V366.619ZM1463.12 367.479H1465.95V371.053H1463.12V367.479ZM1482.43 368.369H1481.01V370.164H1482.43V368.369ZM1498.83 369.183H1498.96V369.349H1498.83V369.183ZM949.107 390.946H949.036V391.037H949.107V390.946ZM965.669 390.252H966.815V391.699H965.669V390.252ZM984.713 389.362H982.148V392.605H984.713V389.362ZM998.662 388.518H1002.58V393.465H998.662V388.518ZM1020.39 387.703H1015.2V394.263H1020.39V387.703ZM1031.77 386.934H1038.17V395.017H1031.77V386.934ZM1055.92 386.21H1048.38V395.741H1055.92V386.21ZM1064.99 385.486H1073.68V396.465H1064.99V385.486ZM1091.37 384.852H1081.67V397.113H1091.37V384.852ZM1098.41 384.294H1109V397.671H1098.41V384.294ZM1126.61 383.738H1115.15V398.215H1126.61V383.738ZM1131.97 383.269H1144.16V398.682H1131.97V383.269ZM1161.69 382.846H1148.82V399.118H1161.69V382.846ZM1165.72 382.501H1179.14V399.452H1165.72V382.501ZM1196.53 382.259H1182.71V399.723H1196.53V382.259ZM661.415 113H661.238V113.223H661.415V113ZM638.234 113.061H638.137V113.183H638.234V113.061ZM684.387 113H684.564V113.223H684.387V113ZM707.714 113H707.537V113.223H707.714V113ZM730.734 113.061H730.831V113.183H730.734V113.061ZM545.637 142.345H545.54V142.467H545.637V142.345ZM568.545 142.161H568.915V142.629H568.545V142.161ZM592.289 141.877H591.469V142.914H592.289V141.877ZM614.441 141.653H615.615V143.138H614.441V141.653ZM638.941 141.408H637.397V143.361H638.941V141.408ZM660.467 141.306H662.187V143.482H660.467V141.306ZM685.384 141.246H683.567V143.544H685.384V141.246ZM706.766 141.306H708.485V143.482H706.766V141.306ZM731.538 141.408H729.995V143.361H731.538V141.408ZM753.289 141.591H754.558V143.198H753.289V141.591ZM777.483 141.877H776.663V142.914H777.483V141.877ZM800.038 142.161H800.408V142.629H800.038V142.161ZM823.427 142.345H823.331V142.467H823.427V142.345ZM499.242 171.628H499.338V171.75H499.242V171.628ZM522.697 171.324H522.15V172.015H522.697V171.324ZM544.897 170.814H546.264V172.542H544.897V170.814ZM569.766 170.346H567.677V172.99H569.766V170.346ZM590.553 170.001H593.189V173.336H590.553V170.001ZM616.564 169.716H613.477V173.62H616.564V169.716ZM636.449 169.492H639.905V173.865H636.449V169.492ZM663.135 169.371H659.502V173.966H663.135V169.371ZM682.619 169.33H686.349V174.048H682.619V169.33ZM709.434 169.371H705.8V173.966H709.434V169.371ZM729.047 169.492H732.503V173.865H729.047V169.492ZM755.458 169.716H752.371V173.62H755.458V169.716ZM775.746 170.001H778.382V173.336H775.746V170.001ZM801.259 170.346H799.169V172.99H801.259V170.346ZM822.688 170.814H824.054V172.542H822.688V170.814ZM846.85 171.283H846.207V172.096H846.85V171.283ZM869.629 171.628H869.725V171.75H869.629V171.628ZM476.318 200.727H475.948V201.195H476.318V200.727ZM498.647 200.159H499.917V201.765H498.647V200.159ZM523.564 199.528H521.298V202.395H523.564V199.528ZM544.029 199H547.116V202.904H544.029V199ZM570.635 198.553H566.825V203.372H570.635V198.553ZM589.652 198.146H594.105V203.779H589.652V198.146ZM617.479 197.86H612.576V204.063H617.479V197.86ZM635.549 197.637H640.822V204.307H635.549V197.637ZM664.051 197.515H658.602V204.408H664.051V197.515ZM681.703 197.455H687.233V204.45H681.703V197.455ZM710.349 197.515H704.9V204.408H710.349V197.515ZM728.146 197.637H733.419V204.307H728.146V197.637ZM756.375 197.86H751.472V204.063H756.375V197.86ZM774.846 198.146H779.299V203.779H774.846V198.146ZM802.175 198.491H798.269V203.433H802.175V198.491ZM821.788 198.96H824.971V202.986H821.788V198.96ZM847.654 199.528H845.387V202.395H847.654V199.528ZM868.986 200.098H870.353V201.826H868.986V200.098ZM893.004 200.727H892.634V201.195H893.004V200.727ZM452.67 229.849H453.313V230.663H452.67V229.849ZM477.041 229.097H475.225V231.395H477.041V229.097ZM497.827 228.405H500.737V232.086H497.827V228.405ZM524.385 227.774H520.478V232.716H524.385V227.774ZM543.226 227.267H547.952V233.246H543.226V227.267ZM571.486 226.738H565.956V233.734H571.486V226.738ZM588.784 226.331H594.958V234.14H588.784V226.331ZM680.835 225.639H688.101V234.831H680.835V225.639ZM664.903 225.7H657.733V234.77H664.903V225.7ZM634.681 225.822H641.674V234.669H634.681V225.822ZM611.708 226.047H618.332V234.425H611.708V226.047ZM711.202 225.7H704.032V234.77H711.202V225.7ZM727.278 225.822H734.271V234.669H727.278V225.822ZM757.227 226.047H750.604V234.425H757.227V226.047ZM773.979 226.331H780.152V234.14H773.979V226.331ZM802.979 226.738H797.449V233.734H802.979V226.738ZM820.968 227.205H825.775V233.286H820.968V227.205ZM848.506 227.714H844.519V232.757H848.506V227.714ZM868.167 228.344H871.157V232.127H868.167V228.344ZM893.727 229.097H891.91V231.395H893.727V229.097ZM915.655 229.849H916.298V230.663H915.655V229.849ZM430.196 259.072H429.473V259.987H430.196V259.072ZM451.979 258.258H453.973V260.78H451.979V258.258ZM477.765 257.465H474.502V261.593H477.765V257.465ZM497.056 256.712H501.509V262.345H497.056V256.712ZM525.156 256.083H519.707V262.976H525.156V256.083ZM542.406 255.512H548.756V263.545H542.406V255.512ZM572.258 255.046H565.185V263.993H572.258V255.046ZM587.98 254.596H595.793V264.48H587.98V254.596ZM619.152 254.293H610.889V264.746H619.152V254.293ZM633.861 254.068H642.478V264.968H633.861V254.068ZM665.772 253.906H656.882V265.152H665.772V253.906ZM680.031 253.906H688.92V265.152H680.031V253.906ZM712.07 253.906H703.18V265.152H712.07V253.906ZM726.458 254.068H735.074V264.968H726.458V254.068ZM758.047 254.293H749.784V264.746H758.047V254.293ZM773.175 254.596H780.987V264.48H773.175V254.596ZM803.799 254.984H796.629V264.054H803.799V254.984ZM820.196 255.512H826.546V263.545H820.196V255.512ZM849.278 256.021H843.748V263.017H849.278V256.021ZM867.395 256.651H871.928V262.386H867.395V256.651ZM894.498 257.403H891.139V261.654H894.498V257.403ZM914.915 258.197H917.005V260.84H914.915V258.197ZM939.527 259.011H938.707V260.048H939.527V259.011ZM406.372 288.416H407.015V289.229H406.372V288.416ZM430.823 287.542H428.83V290.063H430.823V287.542ZM451.256 286.626H454.712V290.999H451.256V286.626ZM478.504 285.834H473.777V291.812H478.504V285.834ZM496.332 285.081H502.232V292.544H496.332V285.081ZM525.88 284.45H518.983V293.174H525.88V284.45ZM541.682 283.881H549.495V293.765H541.682V283.881ZM573.03 283.353H564.413V294.253H573.03V283.353ZM587.241 282.945H596.5V294.659H587.241V282.945ZM619.923 282.6H610.117V295.004H619.923V282.6ZM633.089 282.377H643.249V295.229H633.089V282.377ZM666.543 282.214H656.11V295.412H666.543V282.214ZM679.259 282.214H689.692V295.412H679.259V282.214ZM712.841 282.214H702.408V295.412H712.841V282.214ZM725.687 282.377H735.847V295.229H725.687V282.377ZM758.819 282.6H749.013V295.004H758.819V282.6ZM772.403 282.906H781.759V294.741H772.403V282.906ZM804.57 283.292H795.857V294.314H804.57V283.292ZM819.425 283.82H827.318V293.805H819.425V283.82ZM850.017 284.39H843.024V293.236H850.017V284.39ZM866.72 285.081H872.62V292.544H866.72V285.081ZM895.222 285.772H890.416V291.852H895.222V285.772ZM914.192 286.566H917.728V291.04H914.192V286.566ZM940.155 287.48H938.065V290.124H940.155V287.48ZM961.905 288.355H962.629V289.27H961.905V288.355ZM383.721 317.862H383.351V318.329H383.721V317.862ZM405.777 316.947H407.594V319.245H405.777V316.947ZM431.466 316.032H428.203V320.16H431.466V316.032ZM450.628 315.117H455.355V321.095H450.628V315.117ZM479.131 314.303H473.135V321.888H479.131V314.303ZM495.689 313.552H502.859V322.621H495.689V313.552ZM526.555 312.86H518.292V323.313H526.555V312.86ZM540.991 312.29H550.154V323.882H540.991V312.29ZM573.722 311.782H563.739V324.411H573.722V311.782ZM586.518 311.314H597.224V324.858H586.518V311.314ZM620.647 310.969H609.393V325.204H620.647V310.969ZM632.366 310.745H643.989V325.448H632.366V310.745ZM667.267 310.561H655.371V325.61H667.267V310.561ZM678.487 310.521H690.464V325.671H678.487V310.521ZM713.565 310.561H701.668V325.61H713.565V310.561ZM724.914 310.684H736.618V325.488H724.914V310.684ZM759.542 310.969H748.289V325.204H759.542V310.969ZM771.711 311.314H782.417V324.858H771.711V311.314ZM805.261 311.721H795.182V324.472H805.261V311.721ZM818.733 312.23H827.993V323.943H818.733V312.23ZM850.708 312.819H842.348V323.394H850.708V312.819ZM866.028 313.49H873.294V322.682H866.028V313.49ZM895.849 314.243H889.772V321.93H895.849V314.243ZM913.565 315.055H918.371V321.136H913.565V315.055ZM940.798 315.971H937.438V320.221H940.798V315.971ZM961.309 316.886H963.223V319.306H961.309V316.886ZM985.633 317.801H985.183V318.37H985.633V317.801ZM360.347 347.33H360.443V347.452H360.347V347.33ZM384.172 346.576H382.902V348.183H384.172V346.576ZM405.23 345.539H408.14V349.22H405.23V345.539ZM432.061 344.563H427.608V350.196H432.061V344.563ZM450.034 343.647H455.934V351.11H450.034V343.647ZM479.71 342.835H472.54V351.905H479.71V342.835ZM495.062 342.041H503.502V352.717H495.062V342.041ZM527.198 341.351H517.665V353.41H527.198V341.351ZM540.364 340.781H550.797V353.979H540.364V340.781ZM574.396 340.191H563.047V354.548H574.396V340.191ZM585.843 339.743H597.916V355.016H585.843V339.743ZM691.14 338.93H677.797V355.808H691.14V338.93ZM654.696 338.99H667.942V355.747H654.696V338.99ZM644.68 339.174H631.691V355.606H644.68V339.174ZM621.338 339.398H608.719V355.362H621.338V339.398ZM700.994 338.99H714.24V355.747H700.994V338.99ZM737.309 339.113H724.239V355.646H737.309V339.113ZM747.614 339.398H760.233V355.362H747.614V339.398ZM783.109 339.743H771.036V355.016H783.109V339.743ZM794.538 340.191H805.888V354.548H794.538V340.191ZM828.636 340.72H818.106V354.04H828.636V340.72ZM841.754 341.351H851.287V353.41H841.754V341.351ZM873.937 341.981H865.401V352.78H873.937V341.981ZM889.178 342.774H896.444V351.966H889.178V342.774ZM918.966 343.587H912.969V351.172H918.966V343.587ZM936.843 344.503H941.376V350.238H936.843V344.503ZM963.755 345.478H960.765V349.261H963.755V345.478ZM1008.62 347.33H1008.52V347.452H1008.62V347.33ZM360.105 376.306H360.652V376.998H360.105V376.306ZM384.67 375.229H382.403V378.096H384.67V375.229ZM404.732 374.193H408.638V379.135H404.732V374.193ZM432.559 373.216H427.11V380.11H432.559V373.216ZM449.536 372.301H456.432V381.025H449.536V372.301ZM480.256 371.428H471.993V381.88H480.256V371.428ZM494.516 370.633H504.049V382.692H494.516V370.633ZM527.745 369.942H517.118V383.384H527.745V369.942ZM539.769 369.311H551.392V384.014H539.769V369.311ZM574.992 368.743H562.469V384.584H574.992V368.743ZM585.247 368.275H598.494V385.032H585.247V368.275ZM621.917 367.929H608.124V385.377H621.917V367.929ZM631.048 367.644H645.307V385.682H631.048V367.644ZM668.6 367.482H654.068V385.865H668.6V367.482ZM677.17 367.42H691.782V385.906H677.17V367.42ZM714.9 367.482H700.367V385.865H714.9V367.482ZM723.645 367.644H737.904V385.682H723.645V367.644ZM760.861 367.868H746.971V385.438H760.861V367.868ZM770.441 368.275H783.688V385.032H770.441V368.275ZM806.484 368.743H793.961V384.584H806.484V368.743ZM817.512 369.25H829.215V384.055H817.512V369.25ZM851.865 369.882H841.159V383.425H851.865V369.882ZM864.855 370.572H874.484V382.753H864.855V370.572ZM897.007 371.386H888.647V381.961H897.007V371.386ZM912.472 372.24H919.465V381.086H912.472V372.24ZM941.874 373.155H936.344V380.15H941.874V373.155ZM960.265 374.132H964.252V379.175H960.265V374.132ZM986.597 375.169H984.234V378.158H986.597V375.169ZM1008.25 376.267H1008.9V377.08H1008.25V376.267ZM337.294 405.896H337.197V406.018H337.294V405.896ZM359.704 405.082H361.07V406.811H359.704V405.082ZM385.071 403.985H381.985V407.889H385.071V403.985ZM404.33 402.967H409.056V408.946H404.33V402.967ZM433.01 401.931H426.66V409.963H433.01V401.931ZM449.085 401.015H456.898V410.899H449.085V401.015ZM480.707 400.14H471.543V411.732H480.707V400.14ZM494.065 399.348H504.499V412.546H494.065V399.348ZM528.242 398.595H516.62V413.298H528.242V398.595ZM692.378 395.952H676.575V415.942H692.378V395.952ZM653.473 396.013H669.179V415.881H653.473V396.013ZM645.838 396.237H630.502V415.637H645.838V396.237ZM607.529 396.46H622.512V415.413H607.529V396.46ZM599.04 396.867H584.701V415.007H599.04V396.867ZM561.922 397.335H575.538V414.559H561.922V397.335ZM539.271 397.964H551.89V413.928H539.271V397.964ZM699.772 396.013H715.478V415.881H699.772V396.013ZM738.483 396.175H723.05V415.697H738.483V396.175ZM746.425 396.46H761.407V415.413H746.425V396.46ZM784.235 396.867H769.895V415.007H784.235V396.867ZM793.414 397.335H807.03V414.559H793.414V397.335ZM829.729 397.904H817.013V413.989H829.729V397.904ZM840.661 398.534H852.365V413.338H840.661V398.534ZM874.935 399.286H864.405V412.606H874.935V399.286ZM888.181 400.079H897.44V411.793H888.181V400.079ZM919.963 400.894H911.973V411H919.963V400.894ZM935.894 401.869H942.34V410.024H935.894V401.869ZM964.718 402.846H959.815V409.048H964.718V402.846ZM983.831 403.943H987.014V407.97H983.831V403.943ZM1009.28 405.021H1007.83V406.851H1009.28V405.021ZM1031.67 405.896H1031.77V406.018H1031.67V405.896ZM129.734 128H129.865V128.166H129.734V128ZM112.588 128.045H112.66V128.136H112.588V128.045ZM147.048 128H146.917V128.166H147.048V128ZM164.099 128H164.23V128.166H164.099V128ZM181.388 128.045H181.317V128.136H181.388V128.045ZM43.8586 149.762H43.9302V149.853H43.8586V149.762ZM61.208 149.626H60.9336V149.973H61.208V149.626ZM77.9487 149.415H78.5573V150.184H77.9487V149.415ZM95.8706 149.249H94.9995V150.35H95.8706V149.249ZM112.039 149.068H113.184V150.515H112.039V149.068ZM130.438 148.992H129.162V150.606H130.438V148.992ZM146.308 148.947H147.656V150.651H146.308V148.947ZM164.803 148.992H163.526V150.606H164.803V148.992ZM180.768 149.068H181.914V150.515H180.768V149.068ZM199 149.203H198.058V150.395H199V149.203ZM215.407 149.415H216.016V150.184H215.407V149.415ZM233.031 149.626H232.757V149.973H233.031V149.626ZM250.046 149.762H250.117V149.853H250.046V149.762ZM9.56555 171.478H9.4939V171.569H9.56555V171.478ZM26.4976 171.253H26.9032V171.765H26.4976V171.253ZM44.3955 170.875H43.3813V172.157H44.3955V170.875ZM60.2891 170.528H61.8402V172.489H60.2891V170.528ZM79.2255 170.272H77.2686V172.745H79.2255V170.272ZM94.2842 170.06H96.5751V172.956H94.2842V170.06ZM113.9 169.895H111.334V173.137H113.9V169.895ZM128.445 169.805H131.142V173.213H128.445V169.805ZM148.372 169.774H145.604V173.273H148.372V169.774ZM162.81 169.805H165.507V173.213H162.81V169.805ZM182.63 169.895H180.064V173.137H182.63V169.895ZM197.377 170.06H199.668V172.956H197.377V170.06ZM216.683 170.272H214.727V172.745H216.683V170.272ZM232.112 170.528H233.663V172.489H232.112V170.528ZM250.583 170.875H249.568V172.157H250.583V170.875ZM267.025 171.222H267.503V171.826H267.025V171.222ZM284.482 171.478H284.41V171.569H284.482V171.478ZM-7.79565 193.058H-7.52124V193.405H-7.79565V193.058ZM9.99524 192.637H9.05273V193.828H9.99524V192.637ZM25.8647 192.169H27.5472V194.296H25.8647V192.169ZM45.0281 191.778H42.7371V194.673H45.0281V191.778ZM59.6567 191.446H62.4846V195.02H59.6567V191.446ZM79.9054 191.144H76.6001V195.322H79.9054V191.144ZM93.6152 190.932H97.2545V195.532H93.6152V190.932ZM114.58 190.767H110.667V195.714H114.58V190.767ZM127.777 190.676H131.822V195.789H127.777V190.676ZM149.028 190.632H144.924V195.819H149.028V190.632ZM162.142 190.676H166.187V195.789H162.142V190.676ZM183.31 190.767H179.396V195.714H183.31V190.767ZM196.709 190.932H200.349V195.532H196.709V190.932ZM217.364 191.144H214.059V195.322H217.364V191.144ZM231.444 191.4H234.343V195.065H231.444V191.4ZM251.263 191.748H248.901V194.734H251.263V191.748ZM266.417 192.169H268.099V194.296H266.417V192.169ZM284.947 192.592H283.933V193.874H284.947V192.592ZM301.485 193.058H301.76V193.405H301.485V193.058ZM-24.5959 214.656H-25.0732V215.259H-24.5959V214.656ZM-8.33252 214.097H-6.98413V215.802H-8.33252V214.097ZM10.6036 213.585H8.44385V216.314H10.6036V213.585ZM25.2563 213.117H28.1559V216.781H25.2563V213.117ZM45.6487 212.741H42.1406V217.174H45.6487V212.741ZM59.0122 212.348H63.1168V217.536H59.0122V212.348ZM80.538 212.046H75.9561V217.837H80.538V212.046ZM149.673 211.534H144.28V218.35H149.673V211.534ZM127.133 211.578H132.454V218.305H127.133V211.578ZM115.213 211.669H110.022V218.229H115.213V211.669ZM97.8872 211.836H92.9712V218.049H97.8872V211.836ZM161.498 211.578H166.819V218.305H161.498V211.578ZM183.942 211.669H178.751V218.229H183.942V211.669ZM196.065 211.836H200.981V218.049H196.065V211.836ZM217.996 212.046H213.415V217.837H217.996V212.046ZM230.835 212.348H234.94V217.536H230.835V212.348ZM251.86 212.695H248.292V217.204H251.86V212.695ZM265.772 213.072H268.732V216.812H265.772V213.072ZM285.544 213.539H283.325V216.345H285.544V213.539ZM300.948 214.097H302.297V215.802H300.948V214.097ZM319.05 214.656H318.572V215.259H319.05V214.656ZM-42.2913 236.327H-41.7544V237.006H-42.2913V236.327ZM-24.1064 235.723H-25.5862V237.594H-24.1064V235.723ZM-8.86914 235.135H-6.4469V238.197H-8.86914V235.135ZM11.1768 234.577H7.87158V238.754H11.1768V234.577ZM24.6838 234.11H28.7289V239.223H24.6838V234.11ZM46.2452 233.687H41.532V239.644H46.2452V233.687ZM58.4395 233.341H63.6896V239.977H58.4395V233.341ZM81.1582 233.008H75.3591V240.338H81.1582V233.008ZM92.3628 232.783H98.496V240.535H92.3628V232.783ZM115.81 232.617H109.414V240.7H115.81V232.617ZM126.501 232.496H133.099V240.836H126.501V232.496ZM150.281 232.496H143.683V240.836H150.281V232.496ZM160.865 232.496H167.464V240.836H160.865V232.496ZM184.538 232.617H178.143V240.7H184.538V232.617ZM195.456 232.783H201.589V240.535H195.456V232.783ZM218.617 233.008H212.818V240.338H218.617V233.008ZM230.227 233.296H235.548V240.022H230.227V233.296ZM252.432 233.687H247.719V239.644H252.432V233.687ZM265.2 234.065H269.305V239.253H265.2V234.065ZM286.117 234.532H282.752V238.785H286.117V234.532ZM300.375 235.09H302.869V238.242H300.375V235.09ZM319.575 235.678H318.023V237.639H319.575V235.678ZM335.683 236.282H336.291V237.051H335.683V236.282ZM-58.9607 258.089H-59.438V258.692H-58.9607V258.089ZM-42.7688 257.44H-41.2893V259.31H-42.7688V257.44ZM-23.5579 256.762H-26.1233V260.004H-23.5579V256.762ZM-9.40674 256.174H-5.89868V260.607H-9.40674V256.174ZM11.7136 255.616H7.33447V261.15H11.7136V255.616ZM24.1467 255.148H29.2656V261.618H24.1467V255.148ZM46.7941 254.726H40.9951V262.055H46.7941V254.726ZM57.8669 254.334H64.2626V262.417H57.8669V254.334ZM81.6832 254.032H74.8103V262.718H81.6832V254.032ZM91.79 253.775H99.0686V262.975H91.79V253.775ZM116.382 253.61H108.841V263.141H116.382V253.61ZM125.928 253.489H133.672V263.277H125.928V253.489ZM150.854 253.489H143.11V263.277H150.854V253.489ZM160.292 253.489H168.036V263.277H160.292V253.489ZM185.111 253.61H177.57V263.141H185.111V253.61ZM194.884 253.775H202.162V262.975H194.884V253.775ZM219.19 254.002H212.245V262.779H219.19V254.002ZM229.654 254.289H236.121V262.463H229.654V254.289ZM253.005 254.68H247.146V262.085H253.005V254.68ZM264.663 255.103H269.854V261.663H264.663V255.103ZM286.63 255.616H282.251V261.15H286.63V255.616ZM299.839 256.128H303.407V260.637H299.839V256.128ZM320.111 256.717H317.486V260.035H320.111V256.717ZM335.206 257.395H336.757V259.355H335.206V257.395ZM353.438 258.043H352.901V258.722H353.438V258.043ZM-76.5247 279.926H-76.2502V280.272H-76.5247V279.926ZM-58.531 279.247H-59.8794V280.951H-58.531V279.247ZM-43.2339 278.569H-40.8116V281.63H-43.2339V278.569ZM-23.0808 277.89H-26.5889V282.324H-23.0808V277.89ZM-9.88379 277.286H-5.43311V282.912H-9.88379V277.286ZM12.1787 276.729H6.85693V283.456H12.1787V276.729ZM23.6338 276.217H29.767V283.968H23.6338V276.217ZM47.283 275.794H40.4817V284.39H47.283V275.794ZM57.366 275.417H64.7759V284.783H57.366V275.417ZM82.2205 275.07H74.2737V285.114H82.2205V275.07ZM91.2529 274.814H99.6055V285.37H91.2529V274.814ZM116.931 274.648H108.304V285.551H116.931V274.648ZM125.379 274.512H134.209V285.672H125.379V274.512ZM151.427 274.482H142.537V285.717H151.427V274.482ZM159.743 274.512H168.573V285.672H159.743V274.512ZM185.684 274.602H176.997V285.581H185.684V274.602ZM194.347 274.814H202.699V285.37H194.347V274.814ZM219.678 275.07H211.731V285.114H219.678V275.07ZM229.152 275.372H236.634V284.828H229.152V275.372ZM253.506 275.749H246.633V284.436H253.506V275.749ZM264.161 276.186H270.366V284.028H264.161V276.186ZM287.131 276.684H281.737V283.501H287.131V276.684ZM299.361 277.242H303.872V282.943H299.361V277.242ZM320.589 277.845H317.021V282.354H320.589V277.845ZM334.741 278.524H337.234V281.676H334.741V278.524ZM353.879 279.202H352.459V280.997H353.879V279.202ZM370.179 279.881H370.513V280.303H370.179V279.881ZM-93.5281 301.779H-93.5996V301.87H-93.5281V301.779ZM-76.8584 301.221H-75.9158V302.412H-76.8584V301.221ZM-58.1255 300.451H-60.2852V303.181H-58.1255V300.451ZM-43.6758 299.727H-40.3706V303.905H-43.6758V299.727ZM-22.6511 299.048H-27.0303V304.583H-22.6511V299.048ZM-10.3252 298.446H-5.00354V305.172H-10.3252V298.446ZM12.6561 297.857H6.39185V305.775H12.6561V297.857ZM23.1682 297.346H30.2439V306.289H23.1682V297.346ZM47.7606 296.923H40.0166V306.71H47.7606V296.923ZM56.8525 296.485H65.2766V307.132H56.8525V296.485ZM82.7335 296.153H73.7725V307.479H82.7335V296.153ZM142.024 295.55H151.928V308.067H142.024V295.55ZM134.71 295.595H124.878V308.021H134.71V295.595ZM107.803 295.731H117.444V307.917H107.803V295.731ZM90.752 295.897H100.119V307.736H90.752V295.897ZM169.074 295.595H159.242V308.021H169.074V295.595ZM176.496 295.685H186.197V307.946H176.496V295.685ZM203.212 295.897H193.846V307.736H203.212V295.897ZM211.23 296.153H220.192V307.479H211.23V296.153ZM237.099 296.485H228.675V307.132H237.099V296.485ZM246.168 296.877H253.984V306.755H246.168V296.877ZM270.796 297.346H263.72V306.289H270.796V297.346ZM281.272 297.813H287.608V305.821H281.272V297.813ZM304.314 298.401H298.92V305.217H304.314V298.401ZM316.579 299.003H321.03V304.629H316.579V299.003ZM337.664 299.683H334.299V303.936H337.664V299.683ZM352.055 300.406H354.274V303.211H352.055V300.406ZM370.859 301.176H369.845V302.457H370.859V301.176ZM387.504 301.779H387.575V301.87H387.504V301.779ZM-93.3732 323.268H-93.7788V323.781H-93.3732V323.268ZM-77.2285 322.469H-75.5461V324.596H-77.2285V322.469ZM-57.7555 321.701H-60.655V325.366H-57.7555V321.701ZM-44.0454 320.976H-40.0005V326.089H-44.0454V320.976ZM-22.281 320.298H-27.3999V326.768H-22.281V320.298ZM-10.731 319.65H-4.5979V327.402H-10.731V319.65ZM13.0619 319.061H5.98608V328.004H13.0619V319.061ZM22.7627 318.548H30.6499V328.517H22.7627V318.548ZM48.2018 318.081H39.575V328.984H48.2018V318.081ZM56.4233 317.659H65.7185V329.407H56.4233V317.659ZM83.1626 317.312H73.3306V329.739H83.1626V317.312ZM90.3105 317.055H100.548V329.995H90.3105V317.055ZM117.91 316.845H107.326V330.221H117.91V316.845ZM124.412 316.724H135.199V330.357H124.412V316.724ZM152.405 316.679H141.559V330.387H152.405V316.679ZM158.777 316.724H169.564V330.357H158.777V316.724ZM186.638 316.845H176.055V330.221H186.638V316.845ZM193.369 317.01H203.678V330.04H193.369V317.01ZM220.621 317.312H210.789V329.739H220.621V317.312ZM228.246 317.659H237.541V329.407H228.246V317.659ZM254.413 318.035H245.727V329.014H254.413V318.035ZM263.278 318.504H271.225V328.548H263.278V318.504ZM288.014 319.015H280.867V328.049H288.014V319.015ZM298.526 319.619H304.731V327.462H298.526V319.619ZM321.401 320.253H316.21V326.813H321.401V320.253ZM333.929 320.931H338.033V326.119H333.929V320.931ZM354.643 321.656H351.684V325.396H354.643V321.656ZM369.475 322.425H371.229V324.642H369.475V322.425ZM387.779 323.239H387.302V323.842H387.779V323.239ZM-110.782 345.212H-110.71V345.303H-110.782V345.212ZM-93.0625 344.609H-94.0767V345.89H-93.0625V344.609ZM-77.5391 343.795H-75.248V346.69H-77.5391V343.795ZM-57.4453 343.04H-60.9534V347.474H-57.4453V343.04ZM-44.3794 342.271H-39.6663V348.228H-44.3794V342.271ZM-21.9353 341.593H-27.7344V348.922H-21.9353V341.593ZM-11.0649 340.944H-4.26367V349.54H-11.0649V340.944ZM13.3958 340.356H5.65186V350.143H13.3958V340.356ZM22.3926 339.798H31.0194V350.701H22.3926V339.798ZM141.118 337.837H152.847V352.662H141.118V337.837ZM135.628 337.883H123.971V352.617H135.628V337.883ZM106.92 338.049H118.304V352.436H106.92V338.049ZM100.99 338.214H89.8691V352.27H100.99V338.214ZM72.925 338.516H83.5685V351.969H72.925V338.516ZM66.1239 338.863H56.0173V351.637H66.1239V338.863ZM48.5718 339.33H39.2051V351.169H48.5718V339.33ZM169.993 337.883H158.335V352.617H169.993V337.883ZM175.613 338.003H187.068V352.481H175.613V338.003ZM204.084 338.214H192.963V352.27H204.084V338.214ZM210.384 338.516H221.027V351.969H210.384V338.516ZM237.947 338.863H227.84V351.637H237.947V338.863ZM245.356 339.285H254.795V351.214H245.356V339.285ZM271.596 339.752H262.909V350.731H271.596V339.752ZM280.533 340.31H288.348V350.188H280.533V340.31ZM305.053 340.898H298.18V349.585H305.053V340.898ZM315.84 341.502H321.77V348.997H315.84V341.502ZM338.38 342.226H333.595V348.273H338.38V342.226ZM351.35 342.95H354.989V347.55H351.35V342.95ZM371.538 343.764H369.176V346.75H371.538V343.764ZM386.992 344.563H388.066V345.92H386.992V344.563ZM404.758 345.212H404.687V345.303H404.758V345.212ZM-110.889 366.793H-110.615V367.14H-110.889V366.793ZM-92.8002 365.978H-94.3513V367.939H-92.8002V365.978ZM-77.8013 365.179H-74.9734V368.753H-77.8013V365.179ZM-57.1589 364.364H-61.2637V369.552H-57.1589V364.364ZM-44.6541 363.641H-39.4039V370.277H-44.6541V363.641ZM-21.6487 362.917H-28.0444V371.001H-21.6487V362.917ZM-11.3633 362.284H-3.95349V371.649H-11.3633V362.284ZM13.73 361.635H5.30591V372.282H13.73V361.635ZM22.0588 361.092H31.3539V372.84H22.0588V361.092ZM48.942 360.579H38.8354V373.353H48.942V360.579ZM55.6833 360.158H66.47V373.791H55.6833V360.158ZM83.9149 359.81H72.5913V374.122H83.9149V359.81ZM89.5347 359.509H101.324V374.409H89.5347V359.509ZM118.709 359.252H106.514V374.665H118.709V359.252ZM123.601 359.131H135.999V374.8H123.601V359.131ZM153.217 359.087H140.748V374.846H153.217V359.087ZM157.965 359.131H170.363V374.8H157.965V359.131ZM187.438 359.252H175.243V374.665H187.438V359.252ZM192.593 359.464H204.453V374.454H192.593V359.464ZM221.397 359.765H210.014V374.153H221.397V359.765ZM227.506 360.158H238.292V373.791H227.506V360.158ZM255.13 360.579H245.023V373.353H255.13V360.579ZM262.575 361.047H271.942V372.885H262.575V361.047ZM288.695 361.605H280.199V372.342H288.695V361.605ZM297.882 362.239H305.363V371.695H297.882V362.239ZM322.033 362.871H315.565V371.045H322.033V362.871ZM333.285 363.551H338.678V370.367H333.285V363.551ZM355.252 364.32H351.076V369.598H355.252V364.32ZM368.866 365.089H371.825V368.829H368.866V365.089ZM388.351 365.949H386.729V368H388.351V365.949ZM404.543 366.748H404.878V367.17H404.543V366.748Z" fill="#0A2538"/>
</g>
</g>
</mask>
<g mask="url(#mask0_439_7418)">
<path d="M-531.703 -33.4879C-320.398 -28.6566 -124.828 9.1064 -20.0039 61.4451C41.9521 92.3979 74.8428 128.032 150.681 156.364C230.778 186.307 365.102 206.206 495.797 200.187C605.354 195.137 696.927 173.26 764.759 148.326C818 128.742 860.947 106.619 924.717 89.7503C988.487 72.8818 1082.03 61.8681 1163.47 70.6436C1216.71 76.4165 1255.12 89.4227 1296.85 100.436C1338.57 111.45 1392.8 121.331 1448.84 118.424C1480.39 116.786 1507.32 111.341 1533.67 106.209C1620.49 89.3189 1710.63 74.5569 1803.42 62.0319C1939.76 43.6213 2107.6 30.151 2235.85 52.7788C2359.64 74.615 2394.15 120.703 2410.4 161.837L2419.67 202.412C2406.45 189.517 2382.34 178.295 2350.46 170.203C2291.97 155.082 2192.28 330.358 2115.65 335.858C1944.85 348.141 2071.09 389.464 1894.93 390.078C1749.24 390.597 2040.44 363.283 1907.42 346.414C1805.95 333.544 2145.41 441.57 2053.88 459.462C1931.97 483.263 1962.63 377.24 1869.24 409.817C889.865 200.187 1448.84 599.425 -252.629 286.002C-520.251 272.901 -317.181 335.858 -359.086 181.503C-386.337 157.211 -403.492 131.771 -444.31 109.062C-487.691 84.96 -557.259 64.7342 -641.102 51.8917C-725.695 38.9401 -828.469 33.6448 -919.293 42.5567C-1002.35 50.7453 -1070.73 72.3359 -1080 96.8471L-1071.88 43.13C-962.792 -8.49904 -743.048 -38.3328 -531.703 -33.4879Z" fill="#DCE4FF" style="mix-blend-mode:screen"/>
</g>
</g>
</svg>
